<svg id="visual" viewBox="0 0 900 600" width="900" height="600" xmlns="http://www.w3.org/2000/svg" xmlns:xlink="http://www.w3.org/1999/xlink" version="1.1"><path d="M0 5L4.8 22.7C9.7 40.3 19.3 75.7 29 78.5C38.7 81.3 48.3 51.7 58 41.8C67.7 32 77.3 42 87 39.2C96.7 36.3 106.3 20.7 116 19C125.7 17.3 135.3 29.7 145 38.2C154.7 46.7 164.3 51.3 174 55.2C183.7 59 193.3 62 203 65.2C212.7 68.3 222.3 71.7 232 61.5C241.7 51.3 251.3 27.7 261 23.7C270.7 19.7 280.3 35.3 290 52.3C299.7 69.3 309.3 87.7 319 81.8C328.7 76 338.3 46 348 34.8C357.7 23.7 367.3 31.3 377 35.2C386.7 39 396.3 39 406 45.8C415.7 52.7 425.3 66.3 435.2 60.8C445 55.3 455 30.7 464.8 35C474.7 39.3 484.3 72.7 494 91.2C503.7 109.7 513.3 113.3 523 111.5C532.7 109.7 542.3 102.3 552 90.2C561.7 78 571.3 61 581 59.2C590.7 57.3 600.3 70.7 610 74.3C619.7 78 629.3 72 639 71.2C648.7 70.3 658.3 74.7 668 66C677.7 57.3 687.3 35.7 697 31.7C706.7 27.7 716.3 41.3 726 55.5C735.7 69.7 745.3 84.3 755 88.3C764.7 92.3 774.3 85.7 784 88.8C793.7 92 803.3 105 813 108.8C822.7 112.7 832.3 107.3 842 97.7C851.7 88 861.3 74 871 69C880.7 64 890.3 68 895.2 70L900 72L900 0L895.2 0C890.3 0 880.7 0 871 0C861.3 0 851.7 0 842 0C832.3 0 822.7 0 813 0C803.3 0 793.7 0 784 0C774.3 0 764.7 0 755 0C745.3 0 735.7 0 726 0C716.3 0 706.7 0 697 0C687.3 0 677.7 0 668 0C658.3 0 648.7 0 639 0C629.3 0 619.7 0 610 0C600.3 0 590.7 0 581 0C571.3 0 561.7 0 552 0C542.3 0 532.7 0 523 0C513.3 0 503.7 0 494 0C484.3 0 474.7 0 464.8 0C455 0 445 0 435.2 0C425.3 0 415.7 0 406 0C396.3 0 386.7 0 377 0C367.3 0 357.7 0 348 0C338.3 0 328.7 0 319 0C309.3 0 299.7 0 290 0C280.3 0 270.7 0 261 0C251.3 0 241.7 0 232 0C222.3 0 212.7 0 203 0C193.3 0 183.7 0 174 0C164.3 0 154.7 0 145 0C135.3 0 125.7 0 116 0C106.3 0 96.7 0 87 0C77.3 0 67.7 0 58 0C48.3 0 38.7 0 29 0C19.3 0 9.7 0 4.8 0L0 0Z" fill="#ff7f50" stroke-linecap="round" stroke-linejoin="miter"></path></svg>