<svg id="visual" viewBox="0 0 900 600" width="900" height="600" xmlns="http://www.w3.org/2000/svg" xmlns:xlink="http://www.w3.org/1999/xlink" version="1.1"><path d="M0 555L4.8 545C9.7 535 19.3 515 29 513.5C38.7 512 48.3 529 58 534.8C67.7 540.7 77.3 535.3 87 539.2C96.7 543 106.3 556 116 549C125.7 542 135.3 515 145 505.7C154.7 496.3 164.3 504.7 174 504.8C183.7 505 193.3 497 203 492.5C212.7 488 222.3 487 232 501.8C241.7 516.7 251.3 547.3 261 554.7C270.7 562 280.3 546 290 543.3C299.7 540.7 309.3 551.3 319 545.7C328.7 540 338.3 518 348 511.2C357.7 504.3 367.3 512.7 377 523.8C386.7 535 396.3 549 406 544.5C415.7 540 425.3 517 435.2 520.5C445 524 455 554 464.8 564.2C474.7 574.3 484.3 564.7 494 554.8C503.7 545 513.3 535 523 533.3C532.7 531.7 542.3 538.3 552 549.5C561.7 560.7 571.3 576.3 581 579C590.7 581.7 600.3 571.3 610 562.3C619.7 553.3 629.3 545.7 639 542.5C648.7 539.3 658.3 540.7 668 535.7C677.7 530.7 687.3 519.3 697 525C706.7 530.7 716.3 553.3 726 555C735.7 556.7 745.3 537.3 755 535C764.7 532.7 774.3 547.3 784 550.8C793.7 554.3 803.3 546.7 813 543.3C822.7 540 832.3 541 842 545.5C851.7 550 861.3 558 871 550C880.7 542 890.3 518 895.2 506L900 494L900 601L895.2 601C890.3 601 880.7 601 871 601C861.3 601 851.7 601 842 601C832.3 601 822.7 601 813 601C803.3 601 793.7 601 784 601C774.3 601 764.7 601 755 601C745.3 601 735.7 601 726 601C716.3 601 706.7 601 697 601C687.3 601 677.7 601 668 601C658.3 601 648.7 601 639 601C629.3 601 619.7 601 610 601C600.3 601 590.7 601 581 601C571.3 601 561.7 601 552 601C542.3 601 532.7 601 523 601C513.3 601 503.7 601 494 601C484.3 601 474.7 601 464.8 601C455 601 445 601 435.2 601C425.3 601 415.7 601 406 601C396.3 601 386.7 601 377 601C367.3 601 357.7 601 348 601C338.3 601 328.7 601 319 601C309.3 601 299.7 601 290 601C280.3 601 270.7 601 261 601C251.3 601 241.7 601 232 601C222.3 601 212.7 601 203 601C193.3 601 183.7 601 174 601C164.3 601 154.7 601 145 601C135.3 601 125.7 601 116 601C106.3 601 96.7 601 87 601C77.3 601 67.7 601 58 601C48.3 601 38.7 601 29 601C19.3 601 9.7 601 4.8 601L0 601Z" fill="#ff7f50" stroke-linecap="round" stroke-linejoin="miter"></path></svg>